<svg xmlns="http://www.w3.org/2000/svg" xmlns:xlink="http://www.w3.org/1999/xlink" width="128" height="128"><defs><clipPath id="n"><path d="M0 0h128v128H0z"/></clipPath><clipPath id="B"><path d="M0 0h128v128H0z"/></clipPath><clipPath id="d"><path d="M0 0h192v152H0z"/></clipPath><clipPath id="f"><path d="M0 0h192v152H0z"/></clipPath><clipPath id="y"><path d="M0 0h128v128H0z"/></clipPath><clipPath id="g"><path d="M0 0h192v152H0z"/></clipPath><clipPath id="b"><path d="M0 0h192v152H0z"/></clipPath><clipPath id="m"><path d="M0 0h192v152H0z"/></clipPath><clipPath id="D"><path d="M0 0h128v128H0z"/></clipPath><clipPath id="h"><path d="M0 0h192v152H0z"/></clipPath><clipPath id="j"><path d="M0 0h192v152H0z"/></clipPath><clipPath id="l"><path d="M0 0h192v152H0z"/></clipPath><mask id="J"><g filter="url(#a)"><path fill-opacity=".5" d="M0 0h128v128H0z"/></g></mask><mask id="I"><g filter="url(#a)"><path fill-opacity=".5" d="M0 0h128v128H0z"/></g></mask><mask id="N"><use xlink:href="#A"/></mask><mask id="K"><g filter="url(#a)"><path fill-opacity=".242" d="M0 0h128v128H0z"/></g></mask><mask id="r"><g filter="url(#a)"><path fill-opacity=".5" d="M0 0h128v128H0z"/></g></mask><mask id="t"><g filter="url(#a)"><path fill-opacity=".5" d="M0 0h128v128H0z"/></g></mask><mask id="F"><g filter="url(#a)"><path fill-opacity=".8" d="M0 0h128v128H0z"/></g></mask><mask id="v"><g filter="url(#a)"><path fill-opacity=".242" d="M0 0h128v128H0z"/></g></mask><mask id="L"><g filter="url(#a)"><path fill-opacity=".5" d="M0 0h128v128H0z"/></g></mask><mask id="x"><g filter="url(#a)"><path fill-opacity=".5" d="M0 0h128v128H0z"/></g></mask><g id="E" clip-path="url(#B)"><path d="M128 80.64V128H0V80.64zm0 0" fill="url(#C)"/><path d="M13.309 80.64L60.664 128H81.88l-47.36-47.36zm42.421 0L103.094 128h21.215L76.945 80.64zm42.43 0L128 110.48V89.27l-8.629-8.63zM0 88.548v21.215L18.238 128h21.215zm0 0"/></g><g id="w" clip-path="url(#g)" fill="none" stroke-width="2" stroke-linecap="round" stroke="#fff"><path d="M19 49V39h10M109.016 49V39h-10M109.016 91.016v10h-10M19 91.016v10h10"/></g><g id="z" clip-path="url(#n)"><path d="M16 40h96a8 8 0 018 8v60a8 8 0 01-8 8H16a8 8 0 01-8-8V48a8 8 0 018-8zm0 0" fill="url(#o)"/><path d="M16 28h96a8 8 0 018 8v68a8 8 0 01-8 8H16a8 8 0 01-8-8V36a8 8 0 018-8zm0 0" fill="#deddda"/><path d="M16 32h96c2.21 0 4 1.79 4 4v68c0 2.21-1.79 4-4 4H16c-2.21 0-4-1.79-4-4V36c0-2.21 1.79-4 4-4zm0 0" fill="#241f31"/><path d="M16 36h96v68H16zm0 0" fill="url(#p)"/><use xlink:href="#q" mask="url(#r)"/><use xlink:href="#s" mask="url(#t)"/><use xlink:href="#u" mask="url(#v)"/><path d="M60 56c-1.102 0-2 .898-2 2v2h-6c-1.105 0-2 .898-2 2v16c0 1.102.895 2 2 2h24c1.105 0 2-.898 2-2V62c0-1.102-.895-2-2-2h-6v-2c0-1.102-.898-2-2-2zm4 6a8 8 0 110 16 8 8 0 010-16zm0 4c-2.21 0-4 1.79-4 4s1.79 4 4 4 4-1.79 4-4-1.79-4-4-4zm0 0" fill="#fff"/><use xlink:href="#w" mask="url(#x)"/></g><g id="u" clip-path="url(#f)"><path d="M16 36h96v68H16zm0 0" fill="#1a5fb4"/></g><g id="A" clip-path="url(#y)" filter="url(#a)"><use xlink:href="#z"/></g><g id="s" clip-path="url(#d)"><path d="M16 36h96v68H16zm0 0" fill="url(#e)"/></g><g id="q" clip-path="url(#b)"><path d="M16 104h96V36H16zm0 0" fill="url(#c)"/></g><g id="M" clip-path="url(#D)"><use xlink:href="#E" mask="url(#F)"/></g><radialGradient id="p" gradientUnits="userSpaceOnUse" cx="106.667" cy="-60.348" fx="106.667" fy="-60.348" r="225" gradientTransform="matrix(.21429 0 0 .32237 9.143 73.588)"><stop offset="0" stop-color="#50dbb5"/><stop offset="1" stop-color="#4a86cf"/></radialGradient><radialGradient id="c" gradientUnits="userSpaceOnUse" cx="317.765" cy="86.748" fx="317.765" fy="86.748" r="225" gradientTransform="matrix(.38857 0 0 -.27573 -35.474 109.785)"><stop offset="0" stop-color="#1a5fb4"/><stop offset="1" stop-color="#98c1f1" stop-opacity="0"/></radialGradient><radialGradient id="H" gradientUnits="userSpaceOnUse" cx="106.667" cy="-60.348" fx="106.667" fy="-60.348" r="225" gradientTransform="matrix(.21429 0 0 .32237 9.143 73.588)"><stop offset="0" stop-color="#50dbb5"/><stop offset="1" stop-color="#4a86cf"/></radialGradient><radialGradient id="i" gradientUnits="userSpaceOnUse" cx="317.765" cy="86.748" fx="317.765" fy="86.748" r="225" gradientTransform="matrix(.38857 0 0 -.27573 -35.474 109.785)"><stop offset="0" stop-color="#1a5fb4"/><stop offset="1" stop-color="#98c1f1" stop-opacity="0"/></radialGradient><radialGradient id="e" gradientUnits="userSpaceOnUse" cx="276.588" cy="218.278" fx="276.588" fy="218.278" r="225" gradientTransform="matrix(.38857 0 0 .52385 -35.474 -23.946)"><stop offset="0" stop-color="#98c1f1"/><stop offset="1" stop-color="#2dc0af" stop-opacity=".138"/></radialGradient><radialGradient id="k" gradientUnits="userSpaceOnUse" cx="276.588" cy="218.278" fx="276.588" fy="218.278" r="225" gradientTransform="matrix(.38857 0 0 .52385 -35.474 -23.946)"><stop offset="0" stop-color="#98c1f1"/><stop offset="1" stop-color="#2dc0af" stop-opacity=".138"/></radialGradient><linearGradient id="C" gradientUnits="userSpaceOnUse" x1="300" y1="235" x2="428" y2="235" gradientTransform="matrix(0 .37 -.98462 0 295.385 -30.36)"><stop offset="0" stop-color="#f9f06b"/><stop offset="1" stop-color="#f5c211"/></linearGradient><linearGradient id="o" gradientUnits="userSpaceOnUse" x1="88.596" y1="-449.394" x2="536.596" y2="-449.394" gradientTransform="matrix(.25 0 0 .25 -14.149 228.349)"><stop offset="0" stop-color="#77767b"/><stop offset=".036" stop-color="#c0bfbc"/><stop offset=".071" stop-color="#9a9996"/><stop offset=".929" stop-color="#9a9996"/><stop offset=".964" stop-color="#c0bfbc"/><stop offset="1" stop-color="#77767b"/></linearGradient><linearGradient id="G" gradientUnits="userSpaceOnUse" x1="88.596" y1="-449.394" x2="536.596" y2="-449.394" gradientTransform="matrix(.25 0 0 .25 -14.149 228.349)"><stop offset="0" stop-color="#77767b"/><stop offset=".036" stop-color="#c0bfbc"/><stop offset=".071" stop-color="#9a9996"/><stop offset=".929" stop-color="#9a9996"/><stop offset=".964" stop-color="#c0bfbc"/><stop offset="1" stop-color="#77767b"/></linearGradient><filter id="a" filterUnits="objectBoundingBox" x="0%" y="0%" width="100%" height="100%"><feColorMatrix in="SourceGraphic" values="0 0 0 0 1 0 0 0 0 1 0 0 0 0 1 0 0 0 1 0"/></filter></defs><path d="M16 40h96a8 8 0 018 8v60a8 8 0 01-8 8H16a8 8 0 01-8-8V48a8 8 0 018-8zm0 0" fill="url(#G)"/><path d="M16 28h96a8 8 0 018 8v68a8 8 0 01-8 8H16a8 8 0 01-8-8V36a8 8 0 018-8zm0 0" fill="#deddda"/><path d="M16 32h96c2.21 0 4 1.79 4 4v68c0 2.21-1.79 4-4 4H16c-2.21 0-4-1.79-4-4V36c0-2.21 1.79-4 4-4zm0 0" fill="#241f31"/><path d="M16 36h96v68H16zm0 0" fill="url(#H)"/><use xlink:href="#q" mask="url(#I)"/><use xlink:href="#s" mask="url(#J)"/><use xlink:href="#u" mask="url(#K)"/><path d="M60 56c-1.102 0-2 .898-2 2v2h-6c-1.105 0-2 .898-2 2v16c0 1.102.895 2 2 2h24c1.105 0 2-.898 2-2V62c0-1.102-.895-2-2-2h-6v-2c0-1.102-.898-2-2-2zm4 6a8 8 0 110 16 8 8 0 010-16zm0 4c-2.21 0-4 1.79-4 4s1.79 4 4 4 4-1.79 4-4-1.79-4-4-4zm0 0" fill="#fff"/><use xlink:href="#w" mask="url(#L)"/><use xlink:href="#M" mask="url(#N)"/></svg>